<?xml version="1.0" encoding="UTF-8" standalone="no"?>
<!-- Created with Inkscape (http://www.inkscape.org/) -->

<svg
   xmlns:dc="http://purl.org/dc/elements/1.1/"
   xmlns:cc="http://creativecommons.org/ns#"
   xmlns:rdf="http://www.w3.org/1999/02/22-rdf-syntax-ns#"
   xmlns:svg="http://www.w3.org/2000/svg"
   xmlns="http://www.w3.org/2000/svg"
   xmlns:sodipodi="http://sodipodi.sourceforge.net/DTD/sodipodi-0.dtd"
   xmlns:inkscape="http://www.inkscape.org/namespaces/inkscape"
   width="454.57834"
   height="117.95468"
   viewBox="0 0 454.57834 117.95468"
   id="svg4194"
   version="1.1"
   inkscape:version="0.91 r"
   sodipodi:docname="logo.svg">
  <defs
     id="defs4196" />
  <sodipodi:namedview
     id="base"
     pagecolor="#ffffff"
     bordercolor="#666666"
     borderopacity="1.0"
     inkscape:pageopacity="0.0"
     inkscape:pageshadow="2"
     inkscape:zoom="1.4"
     inkscape:cx="-87.600264"
     inkscape:cy="37.950386"
     inkscape:document-units="px"
     inkscape:current-layer="layer1"
     showgrid="false"
     inkscape:window-width="1920"
     inkscape:window-height="1021"
     inkscape:window-x="0"
     inkscape:window-y="0"
     inkscape:window-maximized="1"
     fit-margin-top="10"
     fit-margin-left="10"
     fit-margin-right="10"
     fit-margin-bottom="10"
     units="px">
    <sodipodi:guide
       position="-7.1054274e-15,-47.273505"
       orientation="0,454.57834"
       id="guide5051" />
    <sodipodi:guide
       position="454.57834,-47.273505"
       orientation="-165.2282,0"
       id="guide5053" />
    <sodipodi:guide
       position="454.57834,117.95469"
       orientation="0,-454.57834"
       id="guide5055" />
    <sodipodi:guide
       position="-7.1054274e-15,117.95469"
       orientation="165.2282,0"
       id="guide5057" />
  </sodipodi:namedview>
  <metadata
     id="metadata4199">
    <rdf:RDF>
      <cc:Work
         rdf:about="">
        <dc:format>image/svg+xml</dc:format>
        <dc:type
           rdf:resource="http://purl.org/dc/dcmitype/StillImage" />
        <dc:title></dc:title>
      </cc:Work>
    </rdf:RDF>
  </metadata>
  <g
     inkscape:label="Layer 1"
     inkscape:groupmode="layer"
     id="layer1"
     transform="translate(33.003452,-381.67668)">
    <path
       inkscape:connector-curvature="0"
       id="path3527"
       style="font-style:normal;font-variant:normal;font-weight:normal;font-stretch:normal;font-size:medium;line-height:125%;font-family:Anurati;-inkscape-font-specification:'Anurati, Normal';text-align:start;letter-spacing:0px;word-spacing:0px;writing-mode:lr-tb;text-anchor:start;fill:#ffffff;fill-opacity:1;stroke:none;stroke-width:1px;stroke-linecap:butt;stroke-linejoin:miter;stroke-opacity:1"
       d="m 29.892088,448.85772 c 3.428415,0 6.244613,1.22443 8.69348,3.6733 2.326424,2.44887 3.673301,5.26506 3.673301,8.57104 0,1.7142 -0.36733,3.30597 -0.979547,4.77529 -0.612216,1.59176 -1.46932,2.8162 -2.571311,3.91819 -1.10199,1.10199 -2.448867,1.95909 -4.040631,2.57131 -1.469321,0.61221 -3.061085,0.8571 -4.775292,0.8571 l 0,16.40741 c 7.95882,0 14.693206,-2.81619 20.203158,-8.32615 5.632395,-5.63239 8.448593,-12.36678 8.448593,-20.20315 0,-7.83638 -2.816198,-14.57077 -8.448593,-20.20316 -5.509952,-5.50995 -12.244338,-8.32615 -20.203158,-8.32615 l -24.3662323,0 c -3.550858,0 -6.367056,-1.22444 -8.815924,-3.6733 -2.326424,-2.44887 -3.428414,-5.26507 -3.428414,-8.69348 0,-1.59177 0.244886,-3.18353 0.857103,-4.65285 0.612217,-1.46932 1.469321,-2.8162 2.571311,-3.91819 1.224434,-1.22443 2.448868,-2.08154 4.040632,-2.69375 1.469321,-0.61222 3.061084,-0.85711 4.775292,-0.85711 l 0,-16.40739 c -7.95882,0 -14.693206,2.81619 -20.2031577,8.44859 -5.509952,5.63238 -8.32615,12.24432 -8.32615,20.0807 0,7.95882 2.816198,14.6932 8.32615,20.3256 5.5099517,5.50995 12.2443377,8.32615 20.2031577,8.32615 l 24.3662323,0 z" />
    <path
       inkscape:connector-curvature="0"
       id="path3529"
       style="font-style:normal;font-variant:normal;font-weight:normal;font-stretch:normal;font-size:medium;line-height:125%;font-family:Anurati;-inkscape-font-specification:'Anurati, Normal';text-align:start;letter-spacing:0px;word-spacing:0px;writing-mode:lr-tb;text-anchor:start;fill:#ffffff;fill-opacity:1;stroke:none;stroke-width:1px;stroke-linecap:butt;stroke-linejoin:miter;stroke-opacity:1"
       d="m 94.937098,407.83919 -16.28497,-16.16251 0,97.95468 16.28497,-16.40741 0,-65.38476 z" />
    <path
       inkscape:connector-curvature="0"
       id="path3531"
       style="font-style:normal;font-variant:normal;font-weight:normal;font-stretch:normal;font-size:medium;line-height:125%;font-family:Anurati;-inkscape-font-specification:'Anurati, Normal';text-align:start;letter-spacing:0px;word-spacing:0px;writing-mode:lr-tb;text-anchor:start;fill:#ffffff;fill-opacity:1;stroke:none;stroke-width:1px;stroke-linecap:butt;stroke-linejoin:miter;stroke-opacity:1"
       d="m 115.91135,414.45113 49.0998,49.34468 32.81482,-32.69238 0,58.52793 16.16253,0 0,-97.95468 -48.97735,48.97733 -49.0998,-48.97733 0,22.77445 z" />
    <path
       inkscape:connector-curvature="0"
       id="path3533"
       style="font-style:normal;font-variant:normal;font-weight:normal;font-stretch:normal;font-size:medium;line-height:125%;font-family:Anurati;-inkscape-font-specification:'Anurati, Normal';text-align:start;letter-spacing:0px;word-spacing:0px;writing-mode:lr-tb;text-anchor:start;fill:#ffffff;fill-opacity:1;stroke:none;stroke-width:1px;stroke-linecap:butt;stroke-linejoin:miter;stroke-opacity:1"
       d="m 266.60191,457.06142 14.44832,-28.77419 14.32588,28.77419 18.36651,0 -32.69239,-65.38474 -48.97735,97.95468 18.12162,0 8.32615,-16.40741 8.08126,-16.16253 z m 55.22197,16.28497 -18.12162,0 8.08126,16.28497 18.24407,0 -8.20371,-16.28497 z" />
    <path
       inkscape:connector-curvature="0"
       id="path3535"
       style="font-style:normal;font-variant:normal;font-weight:normal;font-stretch:normal;font-size:medium;line-height:125%;font-family:Anurati;-inkscape-font-specification:'Anurati, Normal';text-align:start;letter-spacing:0px;word-spacing:0px;writing-mode:lr-tb;text-anchor:start;fill:#ffffff;fill-opacity:1;stroke:none;stroke-width:1px;stroke-linecap:butt;stroke-linejoin:miter;stroke-opacity:1"
       d="m 382.92313,448.85772 c 3.42841,0 6.24461,1.22443 8.69348,3.6733 2.32642,2.44887 3.6733,5.26506 3.6733,8.57104 0,1.7142 -0.36733,3.30597 -0.97955,4.77529 -0.61222,1.59176 -1.46932,2.8162 -2.57131,3.91819 -1.10199,1.10199 -2.44887,1.95909 -4.04063,2.57131 -1.46932,0.61221 -3.06109,0.8571 -4.77529,0.8571 l 0,16.40741 c 7.95881,0 14.6932,-2.81619 20.20315,-8.32615 5.6324,-5.63239 8.4486,-12.36678 8.4486,-20.20315 0,-7.83638 -2.8162,-14.57077 -8.4486,-20.20316 -5.50995,-5.50995 -12.24434,-8.32615 -20.20315,-8.32615 l -24.36624,0 c -3.55086,0 -6.36705,-1.22444 -8.81592,-3.6733 -2.32642,-2.44887 -3.42842,-5.26507 -3.42842,-8.69348 0,-1.59177 0.24489,-3.18353 0.85711,-4.65285 0.61222,-1.46932 1.46932,-2.8162 2.57131,-3.91819 1.22443,-1.22443 2.44887,-2.08154 4.04063,-2.69375 1.46932,-0.61222 3.06109,-0.85711 4.77529,-0.85711 l 0,-16.40739 c -7.95882,0 -14.6932,2.81619 -20.20315,8.44859 -5.50996,5.63238 -8.32615,12.24432 -8.32615,20.0807 0,7.95882 2.81619,14.6932 8.32615,20.3256 5.50995,5.50995 12.24433,8.32615 20.20315,8.32615 l 24.36624,0 z" />
  </g>
</svg>
